<svg width="24.000000" height="24.000000" viewBox="0 0 24 24" fill="none" xmlns="http://www.w3.org/2000/svg" xmlns:xlink="http://www.w3.org/1999/xlink">
	<desc>
			Created with Pixso.
	</desc>
	<defs>
		<clipPath id="clip11_86">
			<rect id="icon/facebook" rx="-0.500000" width="23.000000" height="23.000000" transform="translate(0.500000 0.500000)" fill="white" fill-opacity="0"/>
		</clipPath>
	</defs>
	<rect id="icon/facebook" rx="-0.500000" width="23.000000" height="23.000000" transform="translate(0.500000 0.500000)" fill="#FFFFFF" fill-opacity="0"/>
	<g clip-path="url(#clip11_86)">
		<path id="Vector" d="M22 12.06C22 6.5 17.52 2 12 2C6.47 2 2 6.5 2 12.06C2 17.08 5.65 21.24 10.43 22L10.43 14.96L7.89 14.96L7.89 12.06L10.43 12.06L10.43 9.84C10.43 7.32 11.93 5.92 14.21 5.92C15.3 5.92 16.45 6.12 16.45 6.12L16.45 8.6L15.19 8.6C13.94 8.6 13.56 9.37 13.56 10.17L13.56 12.06L16.33 12.06L15.89 14.96L13.56 14.96L13.56 22C18.34 21.24 22 17.08 22 12.06Z" fill="#000000" fill-opacity="1.000000" fill-rule="nonzero"/>
	</g>
</svg>
