<svg width="24.000000" height="24.000000" viewBox="0 0 24 24" fill="none" xmlns="http://www.w3.org/2000/svg" xmlns:xlink="http://www.w3.org/1999/xlink">
	<desc>
			Created with Pixso.
	</desc>
	<defs>
		<clipPath id="clip11_85">
			<rect id="icon/instagram" rx="-0.500000" width="23.000000" height="23.000000" transform="translate(0.500000 0.500000)" fill="white" fill-opacity="0"/>
		</clipPath>
	</defs>
	<rect id="icon/instagram" rx="-0.500000" width="23.000000" height="23.000000" transform="translate(0.500000 0.500000)" fill="#FFFFFF" fill-opacity="0"/>
	<g clip-path="url(#clip11_85)">
		<path id="vector" d="M12 3C9.55 3 9.24 3.01 8.28 3.05C7.33 3.09 6.67 3.25 6.1 3.47C5.5 3.69 4.95 4.05 4.51 4.51C4.05 4.96 3.69 5.5 3.47 6.1C3.25 6.67 3.09 7.33 3.05 8.29C3.01 9.24 3 9.55 3 12C3 14.44 3.01 14.75 3.05 15.71C3.09 16.66 3.25 17.32 3.47 17.89C3.69 18.49 4.05 19.03 4.51 19.48C4.96 19.94 5.5 20.3 6.1 20.52C6.67 20.74 7.33 20.9 8.28 20.94C9.24 20.98 9.55 21 12 21C14.44 21 14.75 20.98 15.71 20.94C16.66 20.9 17.32 20.74 17.89 20.52C18.49 20.3 19.04 19.94 19.48 19.48C19.94 19.03 20.3 18.49 20.52 17.89C20.75 17.32 20.9 16.66 20.94 15.71C20.98 14.75 21 14.44 21 12C21 9.55 20.98 9.24 20.94 8.28C20.9 7.33 20.75 6.67 20.52 6.1C20.3 5.5 19.94 4.95 19.48 4.51C19.03 4.05 18.49 3.69 17.89 3.47C17.32 3.25 16.66 3.09 15.71 3.05C14.75 3.01 14.44 3 12 3ZM12 4.62C14.4 4.62 14.68 4.63 15.63 4.67C16.51 4.71 16.99 4.86 17.3 4.98C17.72 5.14 18.02 5.34 18.34 5.65C18.65 5.97 18.85 6.27 19.01 6.69C19.13 7 19.28 7.48 19.32 8.36C19.36 9.31 19.37 9.59 19.37 12C19.37 14.4 19.36 14.68 19.32 15.63C19.28 16.51 19.14 16.99 19.01 17.3C18.87 17.69 18.64 18.05 18.34 18.34C18.05 18.64 17.69 18.87 17.3 19.01C16.99 19.13 16.51 19.28 15.63 19.32C14.68 19.36 14.4 19.37 12 19.37C9.59 19.37 9.31 19.36 8.36 19.32C7.48 19.28 7 19.13 6.69 19.01C6.3 18.87 5.94 18.64 5.65 18.34C5.35 18.05 5.12 17.69 4.98 17.3C4.86 16.99 4.71 16.51 4.67 15.63C4.63 14.68 4.62 14.4 4.62 12C4.62 9.59 4.63 9.31 4.67 8.36C4.71 7.48 4.85 7 4.98 6.69C5.14 6.27 5.34 5.97 5.65 5.65C5.94 5.35 6.3 5.12 6.69 4.98C7 4.86 7.48 4.71 8.36 4.67C9.31 4.63 9.59 4.62 12 4.62Z" fill="#000000" fill-opacity="1.000000" fill-rule="evenodd"/>
		<path id="vector" d="M12 15C11.6 15 11.21 14.92 10.85 14.77C10.48 14.62 10.15 14.4 9.87 14.12C9.59 13.84 9.37 13.51 9.22 13.14C9.07 12.78 8.99 12.39 8.99 11.99C8.99 11.6 9.07 11.21 9.22 10.85C9.37 10.48 9.59 10.15 9.87 9.87C10.15 9.59 10.48 9.37 10.85 9.22C11.21 9.07 11.6 8.99 12 8.99C12.79 8.99 13.56 9.31 14.12 9.87C14.68 10.43 15 11.2 15 11.99C15 12.79 14.68 13.56 14.12 14.12C13.56 14.68 12.79 15 12 15ZM12 7.37C10.77 7.37 9.59 7.86 8.72 8.72C7.86 9.59 7.37 10.77 7.37 11.99C7.37 13.22 7.86 14.4 8.72 15.27C9.59 16.13 10.77 16.62 12 16.62C13.22 16.62 14.4 16.13 15.27 15.27C16.13 14.4 16.62 13.22 16.62 11.99C16.62 10.77 16.13 9.59 15.27 8.72C14.4 7.86 13.22 7.37 12 7.37ZM17.97 7.28C17.97 7.57 17.85 7.85 17.65 8.06C17.44 8.26 17.16 8.38 16.87 8.38C16.58 8.38 16.31 8.26 16.1 8.06C15.89 7.85 15.78 7.57 15.78 7.28C15.78 6.99 15.89 6.72 16.1 6.51C16.31 6.31 16.58 6.19 16.87 6.19C17.16 6.19 17.44 6.31 17.65 6.51C17.85 6.72 17.97 6.99 17.97 7.28Z" fill="#000000" fill-opacity="1.000000" fill-rule="evenodd"/>
	</g>
</svg>
