<svg width="126.000000" height="54.000000" viewBox="0 0 126 54" fill="none" xmlns="http://www.w3.org/2000/svg" xmlns:xlink="http://www.w3.org/1999/xlink">
	<desc>
			Created with Pixso.
	</desc>
	<defs/>
	<path id="Dananz" d="M16.57 16.99Q13.92 15.58 10.37 15.58L1.98 15.58L1.98 38L10.37 38Q13.89 38 16.55 36.59Q18.09 35.78 19.23 34.59Q20.06 33.71 20.67 32.63Q20.81 32.39 20.93 32.14Q22.13 29.76 22.13 26.79Q22.13 23.62 20.8 21.17Q20.74 21.05 20.67 20.93Q20.06 19.86 19.24 18.99Q18.1 17.8 16.57 16.99ZM25.14 24.24Q24.1 26.31 24.1 29.05Q24.1 31.8 25.14 33.89Q26 35.62 27.37 36.7Q27.65 36.92 27.96 37.12Q28.73 37.61 29.57 37.88Q30.68 38.25 31.92 38.25Q33.81 38.25 35.23 37.49Q36.42 36.84 37.17 35.86Q37.32 35.67 37.45 35.47L37.45 38L42.91 38L42.91 20.17L37.45 20.17L37.45 22.7Q37.34 22.52 37.22 22.35Q36.48 21.34 35.26 20.69Q33.84 19.93 31.95 19.93Q30.56 19.93 29.33 20.37Q28.62 20.63 27.96 21.04Q27.65 21.23 27.37 21.45Q26 22.51 25.14 24.24ZM68.34 24.24Q67.31 26.31 67.31 29.05Q67.31 31.8 68.34 33.89Q69.2 35.62 70.57 36.7Q70.86 36.92 71.16 37.12Q71.93 37.61 72.77 37.88Q73.89 38.25 75.12 38.25Q77.01 38.25 78.43 37.49Q79.62 36.84 80.37 35.86Q80.52 35.67 80.65 35.47L80.65 38L86.11 38L86.11 20.17L80.65 20.17L80.65 22.7Q80.54 22.52 80.42 22.35Q79.68 21.34 78.46 20.69Q77.04 19.93 75.16 19.93Q73.76 19.93 72.53 20.37Q71.82 20.63 71.16 21.04Q70.86 21.23 70.57 21.45Q69.2 22.51 68.34 24.24ZM61.45 20.96Q59.89 19.99 57.73 19.99Q55.97 19.99 54.56 20.67Q53.45 21.22 52.69 22.08Q52.5 22.3 52.33 22.54L52.33 20.17L46.87 20.17L46.87 38L52.33 38L52.33 28.32Q52.33 26.62 53.16 25.64Q53.21 25.59 53.25 25.55Q53.51 25.27 53.82 25.07Q54.62 24.56 55.75 24.56Q56.86 24.56 57.65 25.06Q57.97 25.26 58.23 25.55Q58.28 25.59 58.32 25.64Q59.16 26.62 59.16 28.32L59.16 38L64.59 38L64.59 27.59Q64.59 24.3 62.98 22.31Q62.85 22.16 62.72 22.01Q62.14 21.39 61.45 20.96ZM104.65 20.96Q103.09 19.99 100.93 19.99Q99.17 19.99 97.76 20.67Q96.65 21.22 95.89 22.08Q95.7 22.3 95.53 22.54L95.53 20.17L90.07 20.17L90.07 38L95.53 38L95.53 28.32Q95.53 26.62 96.37 25.64Q96.41 25.59 96.45 25.55Q96.71 25.27 97.02 25.07Q97.82 24.56 98.95 24.56Q100.06 24.56 100.85 25.06Q101.17 25.26 101.44 25.55Q101.48 25.59 101.53 25.64Q102.36 26.62 102.36 28.32L102.36 38L107.79 38L107.79 27.59Q107.79 24.3 106.18 22.31Q106.05 22.16 105.92 22.01Q105.35 21.39 104.65 20.96ZM124.43 33.49L116.7 33.49L124.27 24.52L124.27 20.17L110.66 20.17L110.66 24.68L118.01 24.68L110.6 33.65L110.6 38L124.43 38L124.43 33.49ZM14.46 31.92Q12.79 33.27 10.02 33.27L7.43 33.27L7.43 20.24L10.02 20.24Q12.73 20.24 14.39 21.57Q14.62 21.75 14.84 21.97Q15.06 22.19 15.26 22.44Q16.57 24.09 16.57 26.79Q16.57 29.51 15.23 31.15Q15.05 31.37 14.84 31.58Q14.66 31.76 14.46 31.92ZM36.6 26.2Q37.45 27.32 37.45 29.08Q37.45 30.85 36.6 31.97Q36.47 32.15 36.31 32.31Q35.74 32.9 35.05 33.2Q34.36 33.49 33.55 33.49Q32.77 33.49 32.1 33.21Q31.38 32.92 30.79 32.3Q30.63 32.14 30.5 31.96Q29.66 30.82 29.66 29.05Q29.66 27.26 30.52 26.15Q30.65 25.99 30.79 25.85Q31.36 25.26 32.05 24.97Q32.74 24.68 33.55 24.68Q34.35 24.68 35.03 24.97Q35.74 25.26 36.31 25.87Q36.47 26.02 36.6 26.2ZM79.8 26.2Q80.65 27.32 80.65 29.08Q80.65 30.85 79.81 31.97Q79.67 32.15 79.51 32.31Q78.95 32.9 78.25 33.2Q77.56 33.49 76.75 33.49Q75.97 33.49 75.3 33.21Q74.58 32.92 73.99 32.3Q73.83 32.14 73.7 31.96Q72.86 30.82 72.86 29.05Q72.86 27.26 73.72 26.15Q73.85 25.99 73.99 25.85Q74.56 25.26 75.25 24.97Q75.94 24.68 76.75 24.68Q77.56 24.68 78.24 24.97Q78.94 25.26 79.51 25.87Q79.67 26.02 79.8 26.2Z" fill="#000000" fill-opacity="1.000000" fill-rule="evenodd"/>
	<path id="Vector 286" d="M55.61 29L55.61 41.5L99 41.5L99 29" stroke="#000000" stroke-opacity="1.000000" stroke-width="2.000000" stroke-linecap="round"/>
	<path id="Vector 288" d="M59.21 41.5L55.84 46" stroke="#000000" stroke-opacity="1.000000" stroke-width="2.000000" stroke-linecap="round"/>
	<path id="Vector 289" d="M95.35 41.5L98.71 46" stroke="#000000" stroke-opacity="1.000000" stroke-width="2.000000" stroke-linecap="round"/>
</svg>
