<svg width="24.000000" height="24.000000" viewBox="0 0 24 24" fill="none" xmlns="http://www.w3.org/2000/svg" xmlns:xlink="http://www.w3.org/1999/xlink">
	<desc>
			Created with Pixso.
	</desc>
	<defs>
		<clipPath id="clip11_87">
			<rect id="icon/tiktok" rx="-0.500000" width="23.000000" height="23.000000" transform="translate(0.500000 0.500000)" fill="white" fill-opacity="0"/>
		</clipPath>
	</defs>
	<g clip-path="url(#clip11_87)">
		<path id="vector" d="M18.11 6C17.03 5.3 16.26 4.18 16.01 2.87C15.96 2.58 15.93 2.29 15.93 2L12.49 2L12.49 15.78C12.43 17.32 11.16 18.56 9.6 18.56C9.12 18.56 8.66 18.44 8.26 18.22C7.34 17.74 6.71 16.78 6.71 15.67C6.71 14.07 8.01 12.78 9.6 12.78C9.9 12.78 10.19 12.82 10.46 12.91L10.46 9.4C10.18 9.36 9.89 9.34 9.6 9.34C6.11 9.34 3.27 12.18 3.27 15.67C3.27 17.81 4.34 19.7 5.98 20.85C7 21.57 8.25 22 9.6 22C13.09 22 15.93 19.16 15.93 15.67L15.93 8.68C17.28 9.65 18.93 10.22 20.72 10.22L20.72 6.78C19.76 6.78 18.86 6.49 18.11 6Z" fill="#000000" fill-opacity="1.000000" fill-rule="nonzero"/>
	</g>
</svg>
