<svg width="24.000000" height="24.000000" viewBox="0 0 24 24" fill="none" xmlns="http://www.w3.org/2000/svg" xmlns:xlink="http://www.w3.org/1999/xlink">
	<desc>
			Created with Pixso.
	</desc>
	<defs>
		<clipPath id="clip11_88">
			<rect id="icon/youtube" rx="-0.500000" width="23.000000" height="23.000000" transform="translate(0.500000 0.500000)" fill="white" fill-opacity="0"/>
		</clipPath>
	</defs>
	<g clip-path="url(#clip11_88)">
		<path id="vector" d="M19.79 5.41C20.65 5.64 21.33 6.32 21.56 7.18C21.98 8.75 22 12 22 12C22 12 22 15.26 21.57 16.81C21.34 17.67 20.66 18.35 19.8 18.58C18.25 19 12 19 12 19C12 19 5.74 19 4.19 18.58C3.33 18.35 2.65 17.67 2.42 16.81C2 15.24 2 12 2 12C2 12 2 8.75 2.41 7.19C2.64 6.33 3.32 5.65 4.18 5.42C5.73 5 11.98 4.99 11.98 4.99C11.98 4.99 18.23 4.99 19.79 5.41ZM15.18 12L9.99 15L9.99 8.99L15.18 12Z" fill="#000000" fill-opacity="1.000000" fill-rule="evenodd"/>
	</g>
</svg>
